<svg width="453" height="107" viewBox="0 0 453 107" fill="none" xmlns="http://www.w3.org/2000/svg">
<path d="M159.019 70.0847V70.5451C159.019 73.3091 162.798 77.0858 171.184 77.0858C178.095 77.0858 180.307 74.7829 180.307 72.6644C180.307 69.6243 176.713 67.7819 168.05 64.8335C156.623 61.0566 141.602 55.5293 141.602 40.6974C141.602 26.9711 153.306 18.4037 169.709 18.4037C186.481 18.4037 199.106 27.3393 199.106 41.6186V42.632H181.136V41.9873C181.136 38.4864 177.542 34.3407 170.078 34.3407C163.811 34.3407 161.323 36.8283 161.323 39.2233C161.323 42.079 164.641 43.5532 173.211 46.5012C183.164 50.0017 200.12 55.8976 200.12 71.6511C200.12 85.654 187.956 93.0236 171.552 93.0236C154.319 93.0236 141.049 85.0084 141.049 70.9138V70.0847L159.019 70.0847Z" fill="white"/>
<path d="M222.147 19.7853H253.848C272.924 19.7853 282.048 32.8669 282.048 47.3302C282.048 62.5308 272.924 75.3359 253.848 75.3359H240.578V91.6416H222.147L222.147 19.7853ZM240.578 36.5518V58.5694H252.834C260.575 58.5694 263.432 53.7791 263.432 47.4224C263.432 41.7109 260.575 36.5518 252.834 36.5518H240.578Z" fill="white"/>
<path d="M302.968 19.7853H336.328C358.814 19.7853 370.333 36.1832 370.333 55.7137C370.333 75.3359 358.814 91.6416 336.328 91.6416H302.968V19.7853ZM321.399 37.6573V73.8621H334.946C345.912 73.8621 351.718 66.4921 351.718 55.7137C351.718 44.9353 345.912 37.6573 334.946 37.6573H321.399Z" fill="white"/>
<path d="M452.447 19.7853L428.302 55.5293L453 91.6416H430.607L417.244 71.9272L403.974 91.6416H381.58L406.277 55.5293L382.133 19.7853H403.881L417.244 39.4076L430.698 19.7853H452.447Z" fill="white"/>
<path d="M24.2638 24.3801H82.8952L107.004 0.124512H0V0.524526V24.1008V106.972L24.2638 82.8689V24.3801Z" fill="white"/>
<path style="mix-blend-mode:multiply" opacity="0.8" d="M24.2638 24.3801H82.8952L107.004 0.124512H0V0.524526V24.1008V106.972L24.2638 82.8689V24.3801Z" fill="white"/>
<path d="M82.8952 24.3801L24.2638 82.869L0 107H24.2638H35.3453L56.8685 85.1407V63.1871V56.9737H63.2067H85.1621L106.914 35.3239V24.3801V0L82.8952 24.3801Z" fill="white"/>
<path d="M62.9349 63.0362V79.1141V107H106.914V63.0362H79.1353H62.9349Z" fill="white"/>
</svg>