<svg width="195" height="52" viewBox="0 0 195 52" fill="none" xmlns="http://www.w3.org/2000/svg">
<path d="M66.5014 32.8349V33.0179C66.5014 34.1165 67.993 35.6177 71.3036 35.6177C74.0321 35.6177 74.9051 34.7023 74.9051 33.8602C74.9051 32.6518 73.4864 31.9195 70.0667 30.7476C65.5555 29.2463 59.6257 27.0493 59.6257 21.1538C59.6257 15.6978 64.2459 12.2924 70.7215 12.2924C77.3426 12.2924 82.3266 15.8441 82.3266 21.52V21.9228H75.2325V21.6665C75.2325 20.2749 73.8138 18.6271 70.867 18.6271C68.3932 18.6271 67.411 19.6159 67.411 20.5679C67.411 21.703 68.7206 22.2889 72.104 23.4607C76.0329 24.8521 82.7268 27.1957 82.7268 33.4575C82.7268 39.0234 77.9247 41.9527 71.449 41.9527C64.6461 41.9527 59.4073 38.7668 59.4073 33.1644V32.8348L66.5014 32.8349Z" fill="#003778"/>
<path d="M91.4222 12.8416H103.937C111.468 12.8416 115.069 18.0413 115.069 23.7903C115.069 29.8323 111.468 34.9221 103.937 34.9221H98.6982V41.4034H91.4222L91.4222 12.8416ZM98.6982 19.506V28.2577H103.537C106.593 28.2577 107.72 26.3536 107.72 23.8269C107.72 21.5566 106.593 19.506 103.537 19.506H98.6982Z" fill="#003778"/>
<path d="M123.328 12.8416H136.497C145.374 12.8416 149.922 19.3595 149.922 27.1226C149.922 34.9221 145.374 41.4034 136.497 41.4034H123.328V12.8416ZM130.604 19.9454V34.3363H135.952C140.281 34.3363 142.573 31.4068 142.573 27.1226C142.573 22.8383 140.281 19.9454 135.952 19.9454H130.604Z" fill="#003778"/>
<path d="M182.337 12.8416L172.806 27.0493L182.556 41.4034H173.716L168.44 33.5672L163.202 41.4034H154.362L164.111 27.0493L154.58 12.8416H163.165L168.44 20.6411L173.752 12.8416H182.337Z" fill="#003778"/>
<path d="M13.3042 14.668H36.4501L45.9676 5.02673H3.72565V5.18573V14.557V47.497L13.3042 37.9165V14.668Z" fill="#003778"/>
<path opacity="0.8" d="M13.3042 14.668H36.4501L45.9676 5.02673H3.72565V5.18573V14.557V47.497L13.3042 37.9165V14.668Z" fill="url(#paint0_linear_1979_398)"/>
<path d="M36.4501 14.6679L13.3042 37.9164L3.72565 47.5082H13.3042H17.6789L26.1755 38.8194V30.0932V27.6234H28.6777H37.345L45.9318 19.0179V14.6679V4.97717L36.4501 14.6679Z" fill="#0094FF"/>
<path d="M28.5704 30.0332V36.424V47.5082H45.9318V30.0332H34.9658H28.5704Z" fill="#0094FF"/>
<path d="M183.838 16.7933C183.838 16.2506 183.94 15.7379 184.145 15.2547C184.35 14.7719 184.631 14.3511 184.987 13.9928C185.342 13.6348 185.76 13.3525 186.24 13.1463C186.72 12.9403 187.229 12.8369 187.769 12.8369C188.308 12.8369 188.817 12.9403 189.297 13.1463C189.777 13.3525 190.195 13.6348 190.551 13.9928C190.907 14.3511 191.187 14.7719 191.392 15.2547C191.597 15.7379 191.7 16.2506 191.7 16.7933C191.7 17.3363 191.597 17.8491 191.392 18.3319C191.187 18.815 190.907 19.2355 190.551 19.5938C190.195 19.952 189.777 20.2344 189.297 20.4404C188.817 20.6467 188.308 20.7497 187.769 20.7497C187.229 20.7497 186.72 20.6467 186.24 20.4404C185.76 20.2344 185.342 19.952 184.987 19.5938C184.631 19.2355 184.35 18.815 184.145 18.3319C183.94 17.8491 183.838 17.3363 183.838 16.7933ZM184.857 16.7933C184.857 17.2059 184.932 17.5886 185.084 17.9411C185.234 18.2941 185.442 18.6033 185.706 18.8692C185.97 19.1354 186.278 19.3441 186.628 19.4961C186.979 19.6481 187.359 19.724 187.769 19.724C188.167 19.724 188.545 19.6481 188.901 19.4961C189.257 19.3441 189.567 19.1354 189.831 18.8692C190.095 18.6033 190.303 18.2941 190.454 17.9411C190.605 17.5886 190.68 17.2059 190.68 16.7933C190.68 16.3918 190.605 16.0118 190.454 15.6536C190.303 15.2954 190.095 14.9836 189.831 14.7174C189.567 14.4516 189.257 14.2428 188.901 14.0906C188.545 13.9388 188.167 13.8626 187.769 13.8626C187.359 13.8626 186.979 13.9388 186.628 14.0906C186.278 14.2428 185.97 14.4516 185.706 14.7174C185.442 14.9836 185.234 15.2954 185.084 15.6536C184.932 16.0118 184.857 16.3918 184.857 16.7933ZM188.513 18.6169L187.898 17.526H187.251V18.6169H186.362V14.7907H187.995C188.448 14.7907 188.796 14.9265 189.038 15.1977C189.281 15.4692 189.402 15.7838 189.402 16.142C189.402 16.3918 189.346 16.6252 189.233 16.8421C189.119 17.0595 188.955 17.2275 188.739 17.3469L189.483 18.6169H188.513ZM187.251 15.6536V16.6631H187.947C188.13 16.6631 188.267 16.6062 188.359 16.4922C188.451 16.3782 188.497 16.2616 188.497 16.142C188.497 16.0118 188.451 15.8978 188.359 15.8002C188.267 15.7024 188.13 15.6536 187.947 15.6536H187.251Z" fill="#003778"/>
<defs>
<linearGradient id="paint0_linear_1979_398" x1="8.48581" y1="5.20806" x2="27.7034" y2="29.6177" gradientUnits="userSpaceOnUse">
<stop stop-color="white" stop-opacity="0"/>
<stop offset="0.34941" stop-color="#CDCCCC" stop-opacity="0.22668"/>
<stop offset="0.889" stop-color="#454142" stop-opacity="0.84698"/>
<stop offset="1" stop-color="#231F20"/>
</linearGradient>
</defs>
</svg>